<?xml version="1.0" encoding="utf-8"?>
<!-- Generator: Adobe Illustrator 26.3.1, SVG Export Plug-In . SVG Version: 6.00 Build 0)  -->
<svg version="1.1" id="Layer_1" xmlns="http://www.w3.org/2000/svg" xmlns:xlink="http://www.w3.org/1999/xlink" x="0px" y="0px"
	 viewBox="0 0 79.1 60.5" style="enable-background:new 0 0 79.1 60.5;" xml:space="preserve">
<style type="text/css">
	.st0{opacity:0.8;}
	.st1{fill:none;}
	.st2{fill:#FAC212;}
	.st3{fill:#656C70;}
	.st4{fill:#474B50;}
</style>
<g id="Layer_2_00000040573680673598285100000009256264269398685628_" class="st0">
	<g id="Layer_1-2">
		<rect class="st1" width="79.1" height="60.5"/>
		<path class="st2" d="M18.9,33.8l3.8-14.9H9.9c-1.6,0-3,1.7-3,3.8v29c0,2.1,1.4,3.8,3,3.8h42.3c1.7,0,3-1.7,3-3.8v-2.1l-32.5-8.3
			C19.7,40.5,18,37.2,18.9,33.8z"/>
		<path class="st3" d="M73.8,12.2c-0.2-0.1-0.4-0.2-0.6-0.3L47.8,5.4c-1.1-0.3-2.3-0.2-3.4,0.2L29,11.3c-0.8,0.3-1.3,0.9-1.5,1.6
			L22,33.7c-0.5,1.5-0.1,3.2,1.2,4.2c0.2,0.1,0.4,0.2,0.6,0.3l39.5,10.3c0.8,0.2,1.6,0,2.2-0.5c0.8-0.6,1.4-1.5,1.6-2.5l7.8-29.1
			C75.5,14.9,75,13.2,73.8,12.2z"/>
		<path class="st4" d="M54.8,22.6c0.1-1.6-0.8-3-2.3-3.6c-0.2-0.1-0.5-0.1-0.7-0.1h-26l-4.2,15.3c-0.5,1.4,0,3,1.2,4
			c0.2,0.1,0.4,0.2,0.6,0.3l31.1,7.8C54.6,46.2,54.9,22.6,54.8,22.6z"/>
		<path class="st4" d="M28.9,11.4l3.8,1.4l4.7,1.4c0,0,3.5,1.4,4.7-0.9c0.7-1.3,2.5-7.8,2.5-7.8S28.9,11.4,28.9,11.4z"/>
	</g>
</g>
</svg>
