<svg xmlns="http://www.w3.org/2000/svg" viewBox="0 0 79.14 60.51"><defs><style>.cls-1{fill:none;}.cls-2{fill:#fac212;}.cls-3{fill:#656c70;}.cls-4{fill:#474b50;}</style></defs><title>icon</title><g id="Layer_2" data-name="Layer 2"><g id="Layer_1-2" data-name="Layer 1"><rect class="cls-1" width="79.14" height="60.51"/><path class="cls-2" d="M18.9,33.8l3.81-14.88H9.94c-1.65,0-3,1.68-3,3.76v29c0,2.07,1.35,3.76,3,3.76H52.21c1.65,0,3-1.69,3-3.76V49.55L22.68,41.23C19.74,40.48,18.05,37.15,18.9,33.8Z"/><path class="cls-3" d="M73.76,12.19a2,2,0,0,0-.62-.28L47.78,5.38a5.71,5.71,0,0,0-3.37.18L29,11.35A2.44,2.44,0,0,0,27.47,13L22,33.7a3.85,3.85,0,0,0,1.17,4.22,2,2,0,0,0,.62.28L63.27,48.53a2.57,2.57,0,0,0,2.2-.52,4.6,4.6,0,0,0,1.62-2.51l7.84-29.09A3.85,3.85,0,0,0,73.76,12.19Z"/><path class="cls-4" d="M54.85,22.62A3.67,3.67,0,0,0,52.59,19a2.31,2.31,0,0,0-.69-.11h-26L21.68,34.15a3.57,3.57,0,0,0,1.16,4,2.47,2.47,0,0,0,.63.26l31.14,7.83Z"/><path class="cls-4" d="M28.86,11.39l3.81,1.35,4.74,1.42s3.51,1.38,4.65-.87c.67-1.32,2.54-7.8,2.54-7.8Z"/></g></g></svg>